# AST/ASF file generated using VICON BodyLanguage
# -----------------------------------------------
:version 1.10
:name VICON
:units
  mass 1.0
  length 0.45
  angle deg
:documentation
   .ast/.asf automatically generated from VICON data using
   VICON BodyBuilder and BodyLanguage model FoxedUp or BRILLIANT.MOD
:root
   order TX TY TZ RX RY RZ
   axis XYZ
   position 0 0 0  
   orientation 0 0 0 
:bonedata
  begin
     id 1 
     name lhipjoint
     direction 0.570549 -0.739093 0.358072 
     length 2.41801 
     axis 0 0 0  XYZ
  end
  begin
     id 2 
     name lfemur
     direction 0.34202 -0.939693 0  
     length 7.44434  
     axis 0 0 20  XYZ
    dof rx ry rz
    limits (-160.0 20.0)
           (-70.0 70.0)
           (-60.0 70.0)
  end
  begin
     id 3 
     name ltibia
     direction 0.34202 -0.939693 0   
     length 7.60047   
     axis 0 0 20   XYZ
    dof rx
    limits (-10.0 170.0)
  end
  begin
     id 4 
     name lfoot
     direction 0.0909041 -0.249757 0.964032   
     length 2.03437   
     axis -90 7.62852e-016 20   XYZ
    dof rx rz
    limits (-45.0 90.0)
           (-70.0 20.0)
  end
  begin
     id 5 
     name ltoes
     direction 1.53547e-011 -4.2174e-011 1   
     length 1.02054   
     axis -90 7.62852e-016 20   XYZ
    dof rx
    limits (-90.0 20.0)
  end
  begin
     id 6 
     name rhipjoint
     direction -0.558096 -0.746754 0.361784   
     length 2.3932  
     axis 0 0 0  XYZ 
  end
  begin
     id 7 
     name rfemur
     direction -0.34202 -0.939693 0   
     length 7.3886   
     axis 0 0 -20   XYZ
    dof rx ry rz
    limits (-160.0 20.0)
           (-70.0 70.0)
           (-70.0 60.0)
  end
  begin
     id 8 
     name rtibia
     direction -0.34202 -0.939693 0   
     length 7.4839   
     axis 0 0 -20   XYZ
    dof rx
    limits (-10.0 170.0)
 end
 begin
     id 9 
     name rfoot
     direction -0.114619 -0.314914 0.942174   
     length 2.25127  
     axis -90 -7.62852e-016 -20   XYZ
    dof rx rz
    limits (-45.0 90.0)
           (-20.0 70.0)
  end
  begin
     id 10 
     name rtoes
     direction -1.53518e-011 -4.21881e-011 1   
     length 1.11821   
     axis -90 -7.62852e-016 -20   XYZ
    dof rx
    limits (-90.0 20.0)
  end
  begin
     id 11 
     name lowerback
     direction -0.00902269 0.996426 -0.0839821   
     length 2.25052   
     axis 0 0 0   XYZ
    dof rx ry rz
    limits (-20.0 45.0)
           (-30.0 30.0)
           (-30.0 30.0)
  end
  begin
     id 12 
     name upperback
     direction 0.0370973 0.999169 -0.0168941   
     length 2.24876   
     axis 0 0 0   XYZ
    dof rx ry rz
    limits (-20.0 45.0)
           (-30.0 30.0)
           (-30.0 30.0)
  end
  begin
     id 13 
     name thorax
     direction 0.0402726 0.998931 0.0227027   
     length 2.26408   
     axis 0 0 0   XYZ
    dof rx ry rz
    limits (-20.0 45.0)
           (-30.0 30.0)
           (-30.0 30.0)
  end
  begin
     id 14 
     name lowerneck
     direction -0.0733697 0.98508 0.155675   
     length 1.58204   
     axis 0 0 0   XYZ
    dof rx ry rz
    limits (-20.0 45.0)
           (-30.0 30.0)
           (-30.0 30.0)
  end
  begin
     id 15 
     name upperneck
     direction 0.0426554 0.993501 -0.105526   
     length 1.61222   
     axis 0 0 0   XYZ
    dof rx ry rz
    limits (-20.0 45.0)
           (-30.0 30.0)
           (-30.0 30.0)
  end
  begin
     id 16
     name head
     direction 0.020792 0.998384 -0.0528868  
     length 1.61527  
     axis 0 0 0   XYZ
    dof rx ry rz
    limits (-20.0 45.0)
           (-30.0 30.0)
           (-30.0 30.0)
  end
  begin
     id 17 
     name lclavicle
     direction 0.967109 0.155462 -0.201325  
     length 3.59357  
     axis 0 0 0   XYZ
    dof ry rz
    limits (-20.0 10.0)
           (0.0 20.0)
  end
  begin
     id 18 
     name lhumerus
     direction 1 -4.48968e-011 2.38195e-027   
     length 5.38154   
     axis 180 -30 -90   XYZ
    dof rx ry rz
    limits (-60.0 90.0)
           (-90.0 90.0)
           (-90.0 90.0)
  end
  begin
     id 19
     name lradius
     direction 1 -4.48961e-011 4.85371e-027   
     length 3.33312   
     axis 180 -30 -90   XYZ
    dof rx
    limits (-10.0 170.0)
  end
  begin
     id 20
     name lwrist
     direction 1 -4.48961e-011 4.76515e-027   
     length 1.66656   
     axis -3.27502e-015 90 90   XYZ
    dof ry
    limits (-180.0 0.0)
 end
  begin
     id 21 
     name lhand
     direction 1 -4.48951e-011 9.53074e-027   
     length 0.710789   
     axis -6.08098e-015 90 90   XYZ
    dof rx rz
    limits (-90.0 90.0)
           (-45.0 45.0)
  end
  begin
     id 22 
     name lfingers
     direction 1 -4.48953e-011 1.90613e-026   
     length 0.573057   
     axis -1.21619e-014 90 90   XYZ
    dof rx
    limits (0.0 90.0)
  end
  begin
     id 23
     name lthumb
     direction 0.707107 -6.34973e-011 0.707107   
     length 0.822798   
     axis -90 45 -9.86923e-015   XYZ
    dof rx rz
    limits (-45.0 45.0)
           (-45.0 45.0)
  end
  begin
     id 24 
     name rclavicle
     direction -0.9585 0.265289 -0.104398   
     length 3.42039  
     axis 0 0 0   XYZ 
    dof ry rz
    limits (-10.0 20.0)
           (-20.0 0.0)
  end
  begin
     id 25 
     name rhumerus
     direction -1 -4.48977e-011 2.21478e-027  
     length 5.16954   
     axis 180 30 90   XYZ
    dof rx ry rz
    limits (-90.0 60.0)
           (-90.0 90.0)
           (-90.0 90.0)
  end
  begin
     id 26 
     name rradius
     direction -1 -4.48967e-011 5.63677e-027   
     length 3.38287   
     axis 180 30 90   XYZ
    dof rx
    limits (-10.0 170.0)
  end
  begin
     id 27 
     name rwrist
     direction -1 -4.48967e-011 4.76501e-027   
     length 1.69144   
     axis -3.27502e-015 -90 -90   XYZ
    dof ry
    limits (-180.0 0.0)
  end
  begin
     id 28
     name rhand
     direction -1 -4.48902e-011 9.53292e-027   
     length 0.817967   
     axis -6.08098e-015 -90 -90   XYZ
    dof rx rz
    limits (-90.0 90.0)
           (-45.0 45.0)
  end
  begin
     id 29
     name rfingers
     direction -1 -4.49012e-011 1.90561e-026   
     length 0.659466   
     axis -1.21619e-014 -90 -90   XYZ
    dof rx
    limits (0.0 90.0)
  end
  begin
     id 30
     name rthumb
     direction -0.707107 -6.34944e-011 0.707107   
     length 0.946865   
     axis -90 -45 9.86923e-015   XYZ
    dof rx rz
    limits (-45.0 45.0)
           (-45.0 45.0)
  end
:hierarchy
  begin
    root lhipjoint rhipjoint lowerback
    lhipjoint lfemur
    lfemur ltibia
    ltibia lfoot
    lfoot ltoes
    rhipjoint rfemur
    rfemur rtibia
    rtibia rfoot
    rfoot rtoes
    lowerback upperback
    upperback thorax
    thorax lowerneck lclavicle rclavicle
    lowerneck upperneck
    upperneck head
    lclavicle lhumerus
    lhumerus lradius
    lradius lwrist
    lwrist lhand lthumb
    lhand lfingers
    rclavicle rhumerus
    rhumerus rradius
    rradius rwrist
    rwrist rhand rthumb
    rhand rfingers
  end

#!OML:ASF F:\twosubjects\two\wednesday\Session 1\Justin1.ASF
:FULLY-SPECIFIED
:DEGREES
309
root 2.97851 16.9444 2.88125 -172.43 -34.9982 -530.618
lowerback 14.5414 2.9477 -9.30957
upperback 0.75601 1.68011 -4.16679
thorax -7.54957 0.90346 0.442612
lowerneck -4.6251 -17.365 -20.9487
upperneck 1.06052 -25.0653 29.0418
head 7.85323 -12.2729 9.49427
rclavicle 1.43125e-014 1.49486e-013
rhumerus 33.7501 -66.8663 -61.6366
rradius 26.9339
rwrist -48.6367
rhand 35.8745 -49.7143
rfingers 7.12502
rthumb 58.8964 -64.6032
lclavicle 1.43125e-014 1.49486e-013
lhumerus -17.1787 22.1914 10.4172
lradius 26.1158
lwrist -6.1733
lhand -4.56047 24.6872
lfingers 7.12502
lthumb 21.2157 53.5462
rfemur -36.9178 -14.3757 43.9365
rtibia 41.6634
rfoot -21.0949 11.0849
rtoes 6.80231
lfemur -12.5465 2.59543 -10.2064
ltibia 64.8894
lfoot 1.28661 -9.9905
ltoes -19.9412
310
root 2.72599 16.9402 2.80054 -172.563 -32.8033 -530.635
lowerback 14.6904 3.24025 -9.58328
upperback 0.963111 1.99541 -4.1311
thorax -7.44571 1.04593 0.565224
lowerneck -4.71592 -17.4613 -20.4447
upperneck 0.704139 -25.1262 28.8964
head 7.67645 -12.3206 9.34676
rclavicle -3.49861e-014 3.49861e-014
rhumerus 33.3748 -66.3877 -61.0223
rradius 26.8524
rwrist -49.3177
rhand 36.4877 -50.5827
rfingers 7.12502
rthumb 59.4255 -64.9524
lclavicle -3.49861e-014 3.49861e-014
lhumerus -18.0295 22.0909 10.2605
lradius 26.2687
lwrist -4.89944
lhand -5.12983 24.7079
lfingers 7.12502
lthumb 20.6687 53.6274
rfemur -35.7998 -13.965 43.0861
rtibia 42.2775
rfoot -21.7883 11.7735
rtoes 5.71483
lfemur -13.0978 3.22634 -9.7611
ltibia 66.5559
lfoot -1.12147 -7.88838
ltoes -22.6667
311
root 2.47833 16.9402 2.7047 -172.566 -30.4675 -530.692
lowerback 14.5862 3.62409 -9.92927
upperback 1.13668 2.425 -4.26755
thorax -7.24704 1.23494 0.527242
lowerneck -4.07474 -17.4395 -19.9699
upperneck -0.204683 -25.193 29.5166
head 7.35096 -12.4747 9.52531
rclavicle -3.49861e-014 6.36111e-014
rhumerus 31.2661 -65.5508 -58.9266
rradius 26.9051
rwrist -51.0821
rhand 36.4233 -51.2887
rfingers 7.12502
rthumb 59.37 -65.7138
lclavicle -3.49861e-014 6.36111e-014
lhumerus -18.4018 22.1349 10.0657
lradius 26.1948
lwrist -3.82024
lhand -5.76429 25.2511
lfingers 7.12502
lthumb 20.0589 54.2357
rfemur -34.7488 -13.3239 42.1742
rtibia 42.9189
rfoot -22.2634 13.3461
rtoes 6.81019
lfemur -13.7177 3.76145 -9.25901
ltibia 68.0271
lfoot -2.90422 -5.34916
ltoes -21.6752
312
root 2.23839 16.9386 2.60673 -172.395 -28.3662 -530.816
lowerback 14.5473 3.92339 -10.2675
upperback 1.15621 2.71893 -4.47531
thorax -7.23958 1.36716 0.42805
lowerneck -3.79866 -16.5398 -22.2127
upperneck -0.205336 -24.5849 32.6576
head 8.06557 -12.2794 11.1592
rclavicle -1.03368e-014 -2.22639e-014
rhumerus 29.286 -64.8224 -57.2243
rradius 27.0461
rwrist -52.4427
rhand 35.8972 -52.1484
rfingers 7.12502
rthumb 58.916 -67.0184
lclavicle -1.03368e-014 -2.22639e-014
lhumerus -18.6644 22.8505 9.77812
lradius 25.8524
lwrist -3.78156
lhand -5.57009 25.3927
lfingers 7.12502
lthumb 20.2456 54.3576
rfemur -33.9037 -12.6252 41.2443
rtibia 43.4842
rfoot -22.7601 14.5932
rtoes 6.78083
lfemur -14.7827 4.26073 -8.76321
ltibia 69.3421
lfoot -3.83601 -4.42347
ltoes -21.3108
313
root 2.00588 16.8985 2.51144 -172.373 -26.5249 -530.549
lowerback 14.5708 4.07259 -10.272
upperback 1.15558 2.8938 -4.52135
thorax -7.26752 1.44565 0.341082
lowerneck -4.42401 -17.2638 -18.4175
upperneck 0.0926515 -24.8925 28.5046
head 7.03402 -12.3047 9.02839
rclavicle -5.725e-014 3.81667e-014
rhumerus 27.8943 -64.0944 -56.2562
rradius 27.3541
rwrist -53.2896
rhand 35.035 -53.488
rfingers 7.12502
rthumb 58.1677 -69.058
lclavicle -5.725e-014 3.81667e-014
lhumerus -19.1746 23.6002 9.33882
lradius 25.5145
lwrist -4.17592
lhand -4.64057 25.3823
lfingers 7.12502
lthumb 21.1387 54.2499
rfemur -33.2481 -11.9993 40.786
rtibia 44.0873
rfoot -23.7015 14.9306
rtoes 4.01404
lfemur -16.3883 4.44316 -7.97956
ltibia 70.8063
lfoot -4.80555 -3.02119
ltoes -27.1092
314
root 1.77714 16.8738 2.41115 -172.278 -24.6966 -530.187
lowerback 14.5045 4.1447 -10.2184
upperback 1.17843 3.00515 -4.49798
thorax -7.21367 1.4934 0.317426
lowerneck -4.41092 -17.3628 -18.2018
upperneck 0.211003 -24.9922 28.1101
head 6.99116 -12.3488 8.84727
rclavicle 5.40694e-014 8.90555e-014
rhumerus 27.6089 -63.5531 -56.4403
rradius 27.5477
rwrist -53.599
rhand 34.2017 -55.5438
rfingers 7.12502
rthumb 57.4396 -71.7576
lclavicle 5.40694e-014 8.90555e-014
lhumerus -19.9737 22.5859 9.03662
lradius 25.6371
lwrist -3.04302
lhand -4.21856 26.1313
lfingers 7.12502
lthumb 21.5441 54.953
rfemur -32.5922 -11.1221 40.3878
rtibia 44.62
rfoot -24.8657 15.0231
rtoes 1.15343
lfemur -18.0922 4.45255 -6.92884
ltibia 72.242
lfoot -5.85533 -1.65652
ltoes -28.3448
315
root 1.55142 16.8572 2.31633 -171.937 -22.8195 -529.978
lowerback 14.4606 4.23684 -10.3652
upperback 1.05274 3.09957 -4.47024
thorax -7.34475 1.55085 0.402319
lowerneck -3.97149 -17.4615 -17.6777
upperneck -0.0719805 -25.0476 27.5508
head 6.67134 -12.4265 8.62838
rclavicle -4.29375e-014 5.40694e-014
rhumerus 27.9318 -63.2847 -57.1329
rradius 27.4286
rwrist -53.623
rhand 32.3689 -56.2404
rfingers 7.12502
rthumb 55.8231 -73.7664
lclavicle -4.29375e-014 5.40694e-014
lhumerus -20.8251 20.8452 9.07851
lradius 25.8994
lwrist -1.51787
lhand -4.50856 26.9287
lfingers 7.12502
lthumb 21.2655 55.7821
rfemur -32.0815 -9.95095 39.7751
rtibia 45.0691
rfoot -25.9633 15.4461
rtoes -0.0841513
lfemur -19.8959 4.28343 -5.96127
ltibia 73.6431
lfoot -7.14845 -0.185984
ltoes -26.7023
316
root 1.32468 16.8321 2.21502 -171.722 -21.0943 -529.334
lowerback 14.4216 4.17715 -10.1601
upperback 1.04269 3.10236 -4.20935
thorax -7.33457 1.56013 0.571249
lowerneck -4.23031 -17.0028 -19.6539
upperneck 0.230249 -24.8035 29.7685
head 7.41995 -12.3011 9.65875
rclavicle 2.8625e-014 2.22639e-014
rhumerus 29.967 -63.196 -59.3341
rradius 27.1428
rwrist -53.2486
rhand 27.4801 -53.4832
rfingers 7.12502
rthumb 51.4278 -73.9227
lclavicle 2.8625e-014 2.22639e-014
lhumerus -21.7408 21.8592 8.79686
lradius 25.4409
lwrist -2.52749
lhand -4.29348 27.1308
lfingers 7.12502
lthumb 21.4721 55.9607
rfemur -31.5175 -8.6736 39.5646
rtibia 45.2765
rfoot -27.1107 15.8781
rtoes 0.11434
lfemur -21.9605 3.863 -4.55613
ltibia 74.9905
lfoot -8.49778 1.06952
ltoes -24.499
317
root 1.09365 16.8008 2.10719 -171.916 -19.5063 -528.048
lowerback 14.4826 4.01135 -9.19318
upperback 1.34434 3.12571 -3.73949
thorax -7.00879 1.54745 0.550539
lowerneck -5.49622 -17.1133 -20.3664
upperneck 0.589075 -24.8888 30.1508
head 7.94624 -12.2308 9.75412
rclavicle -7.31528e-014 -8.90555e-014
rhumerus 33.6651 -63.4414 -63.0689
rradius 26.826
rwrist -52.3951
rhand 33.9579 -57.3062
rfingers 7.12502
rthumb 57.2258 -73.7026
lclavicle -7.31528e-014 -8.90555e-014
lhumerus -22.6815 24.2772 8.36442
lradius 24.783
lwrist -4.56637
lhand -3.94725 26.9194
lfingers 7.12502
lthumb 21.8046 55.7111
rfemur -30.6373 -7.22907 39.9335
rtibia 45.2852
rfoot -27.529 16.0708
rtoes 1.10368
lfemur -23.9279 3.2627 -2.40934
ltibia 76.1633
lfoot -10.0079 1.86206
ltoes -22.4365
